<svg height="20" viewBox="0 0 20 20" width="20" xmlns="http://www.w3.org/2000/svg"><path d="m13.75 12c.4142 0 .75.3358.75.75v1.6894l.7197-.7197c.2929-.2929.7677-.2929 1.0606 0s.2929.7677 0 1.0606l-2 2c-.0753.0754-.1627.1313-.2559.1679-.0489333.0192667-.1003556.0335111-.1536444.0421407l-.1207556.0097093-.0395-.00105c-.0817-.0043-.16-.0216-.2327-.0499-.0941-.0366-.1822-.0928-.2581-.1688l-2-2c-.2929-.2929-.2929-.7774 0-1.0703s.7677-.2832 1.0606.0097l.7197.7197v-1.6894c0-.4142.3358-.75.75-.75zm-8-9c.41421 0 .7500025.33579.7500025.75v10.6893l.7196675-.7196c.29289-.2929.76777-.2929 1.06066 0s.29289.7677 0 1.0606l-2 2c-.29289.2929-.76777.2929-1.06066 0l-2-2c-.29289-.2929-.29289-.7677 0-1.0606s.76777-.2929 1.06066 0l.7196725.7196v-10.6893c0-.41421.3357875-.75.7499975-.75zm7.75 0c.3067 0 .5825.18671.6964.47146l3 7.50004c.1538.3845-.0333.821-.4178.9749-.3846.1538-.8211-.0333-.9749-.4179l-.8115-2.0285h-2.9844l-.8114 2.0285c-.1539.3846-.5903.5717-.9749.4179-.38461-.1539-.57168-.5904-.41784-.9749l3.00004-7.50004c.1139-.28475.3896-.47146.6963-.47146zm0 2.76944-.8922 2.23056h1.7844z" fill="#212121"/></svg>