<svg width="96" height="96" viewBox="0 0 96 96" fill="none" xmlns="http://www.w3.org/2000/svg">
<g clip-path="url(#clip0_58_8)">
<path d="M56 79.52V88H64.48L85.16 67.32L76.68 58.84L56 79.52Z" fill="black"/>
<path d="M80 32L56 8H24C19.6 8 16.04 11.6 16.04 16L16 80C16 84.4 19.56 88 23.96 88H48V76.2L80 44.2V32ZM52 36V14L74 36H52Z" fill="black"/>
<path d="M90.84 56L88 53.16C86.44 51.6 83.92 51.6 82.36 53.16L79.52 56L88 64.48L90.84 61.64C92.4 60.08 92.4 57.56 90.84 56Z" fill="black"/>
</g>
<defs>
<clipPath id="clip0_58_8">
<rect width="96" height="96" fill="white"/>
</clipPath>
</defs>
</svg>
